<svg width="24" height="24" role="presentation" focusable="false" viewBox="0 0 24 24" xmlns="http://www.w3.org/2000/svg"><path d="M11.9999 18.6266L7.49495 20.995C6.739 21.3924 5.80401 21.1018 5.40658 20.3459C5.24833 20.0448 5.19372 19.7 5.25121 19.3649L6.11158 14.3485L2.46699 10.7959C1.85542 10.1998 1.84291 9.22074 2.43904 8.60917C2.67643 8.36564 2.98747 8.20715 3.32403 8.15825L8.36072 7.42637L10.6132 2.86236C10.9912 2.0965 11.9184 1.78206 12.6843 2.16003C12.9892 2.31054 13.2361 2.55739 13.3866 2.86236L15.6391 7.42637L20.6758 8.15825C21.5209 8.28106 22.1065 9.06576 21.9837 9.91094C21.9348 10.2475 21.7763 10.5585 21.5328 10.7959L17.8882 14.3485L18.7486 19.3649C18.893 20.2066 18.3276 21.006 17.4859 21.1504C17.1507 21.2079 16.8059 21.1533 16.5049 20.995L11.9999 18.6266Z" fill="currentColor"/></svg>